<svg xmlns="http://www.w3.org/2000/svg" width="611.502" height="611.671" viewBox="0 0 611.502 611.671">
  <g id="Sun" transform="translate(-7 -1105)">
    <g id="layer1" transform="translate(7 1105)">
      <g id="g4179" transform="translate(0 0)">
        <path id="path13" d="M110.2,405l7.351,195.46s0,3.676,2.45,3.676,2.45-3.676,2.45-3.676L129.8,405" transform="translate(185.751 7.535)" fill="#fff"/>
        <path id="path19" d="M101.53,468.146c-11.254,24.6-1.589,44.7-12.833,66.169s-4.214,39.16-4.968,49.011-8.811,12.588-6.777,14.878,10.459-2.248,13.746-15.335-4.557-20.624,8.925-46.956,2.769-38.2,16.3-61.711" transform="translate(171.647 7.535)" fill="#fff"/>
        <path id="path3047" d="M129.8,405,122.45,209.54s0-3.676-2.45-3.676-2.45,3.676-2.45,3.676L110.2,405" transform="translate(185.751 -205.864)" fill="#fff"/>
        <path id="path3053" d="M138.47,341.854c11.254-24.6,1.589-44.7,12.833-66.169s4.214-39.16,4.968-49.012,8.811-12.588,6.777-14.878-10.459,2.249-13.746,15.336,4.556,20.624-8.926,46.955-2.769,38.2-16.3,61.712" transform="translate(199.856 -205.864)" fill="#fff"/>
        <path id="path2942" d="M120,395.2l-195.406,7.353s-3.675,0-3.675,2.451,3.675,2.451,3.675,2.451L120,414.8" transform="translate(79.081 -99.164)" fill="#fff"/>
        <path id="path2948" d="M56.871,386.525c-24.59-11.257-44.684-1.59-66.151-12.837s-39.149-4.215-49-4.969-12.585-8.814-14.874-6.779S-70.9,372.4-57.82,375.69s20.618-4.558,46.942,8.928,38.193,2.77,61.694,16.307" transform="translate(79.081 -113.273)" fill="#fff"/>
        <path id="path3035" d="M120,414.8l195.406-7.353s3.675,0,3.675-2.451-3.675-2.451-3.675-2.451L120,395.2" transform="translate(292.421 -99.164)" fill="#fff"/>
        <path id="path3041" d="M183.129,423.475c24.59,11.257,44.684,1.59,66.15,12.837s39.15,4.215,49,4.969,12.585,8.814,14.874,6.778S310.9,437.6,297.82,434.31s-20.618,4.558-46.943-8.928-38.193-2.771-61.694-16.307" transform="translate(292.421 -85.056)" fill="#fff"/>
        <path id="path2867" d="M113.07,398.068-19.905,541.478s-2.6,2.6-.866,4.332,4.331-.866,4.331-.866L126.93,411.932" transform="translate(79.081 7.535)" fill="#fff"/>
        <path id="path2873" d="M62.3,436.587C36.956,446.02,29.581,467.068,6.451,474.3s-30.663,24.709-38.159,31.142-15.129,2.669-15.309,5.727,8.985,5.808,20.561-1.121,11.357-17.806,39.5-26.889S42.013,458.1,68.2,451.052" transform="translate(79.081 -52.232)" fill="#fff"/>
        <path id="path2987" d="M126.93,411.932,259.9,268.522s2.6-2.6.866-4.333-4.331.867-4.331.867L113.07,398.068" transform="translate(292.421 -205.864)" fill="#fff"/>
        <path id="path2993" d="M177.7,373.412c25.345-9.432,32.72-30.48,55.85-37.711s30.663-24.71,38.159-31.142,15.13-2.669,15.31-5.728-8.985-5.807-20.561,1.122-11.357,17.806-39.505,26.889S197.987,351.9,171.8,358.948" transform="translate(292.421 -146.097)" fill="#fff"/>
        <path id="path2926" d="M126.93,398.068-16.44,265.056s-2.6-2.6-4.331-.867.866,4.333.866,4.333L113.07,411.932" transform="translate(79.081 -205.864)" fill="#fff"/>
        <path id="path2932" d="M88.421,347.285c-9.43-25.352-30.472-32.729-37.7-55.865s-24.7-30.672-31.134-38.17-2.668-15.134-5.726-15.314-5.806,8.988,1.121,20.567,17.8,11.36,26.882,39.515,25.048,28.973,32.1,55.167" transform="translate(138.832 -205.864)" fill="#fff"/>
        <path id="path3023" d="M113.07,411.932,256.44,544.944s2.6,2.6,4.331.866-.866-4.332-.866-4.332L126.93,398.068" transform="translate(292.421 7.535)" fill="#fff"/>
        <path id="path3029" d="M151.579,462.715c9.43,25.352,30.472,32.729,37.7,55.865s24.7,30.671,31.134,38.17,2.668,15.134,5.725,15.314,5.806-8.988-1.121-20.567-17.8-11.36-26.882-39.515-25.048-28.973-32.1-55.167" transform="translate(232.67 7.535)" fill="#fff"/>
        <path id="path2814" d="M110.945,401.248l-67.987,183.4s-1.407,3.4.857,4.335,3.67-2.459,3.67-2.459l81.57-177.767" transform="translate(162.332 7.535)" fill="#fff"/>
        <path id="path2820" d="M78.778,456.269c-19.807,18.417-18.569,40.686-37.171,56.22s-18.875,34.566-23.34,43.379S5.31,564.125,6.313,567.019s10.523,1.927,18.567-8.906,3.68-20.8,26.21-39.965,17.175-34.235,38.671-50.773" transform="translate(136.928 7.535)" fill="#fff"/>
        <path id="path2963" d="M129.055,408.752l67.987-183.4s1.407-3.4-.857-4.335-3.67,2.459-3.67,2.459l-81.57,177.767" transform="translate(209.171 -205.864)" fill="#fff"/>
        <path id="path2969" d="M161.222,353.73c19.807-18.416,18.569-40.685,37.171-56.219s18.876-34.566,23.341-43.379,12.956-8.257,11.953-11.152-10.524-1.926-18.567,8.907-3.68,20.8-26.21,39.964-17.175,34.236-38.671,50.774" transform="translate(234.574 -205.864)" fill="#fff"/>
        <path id="path2894" d="M123.751,395.943-59.594,327.936s-3.4-1.406-4.333.858,2.458,3.671,2.458,3.671l177.718,81.592" transform="translate(79.081 -122.59)" fill="#fff"/>
        <path id="path2900" d="M68.745,363.767c-18.411-19.813-40.674-18.574-56.2-37.182S-22.016,307.7-30.826,303.238s-8.255-12.96-11.148-11.956-1.926,10.526,8.9,18.572,20.792,3.681,39.954,26.217,34.226,17.179,50.759,38.682" transform="translate(79.081 -148.001)" fill="#fff"/>
        <path id="path2999" d="M116.249,414.057l183.345,68.006s3.4,1.407,4.333-.857-2.458-3.671-2.458-3.671L123.751,395.943" transform="translate(292.421 -75.738)" fill="#fff"/>
        <path id="path3005" d="M171.255,446.233c18.412,19.813,40.675,18.574,56.2,37.182s34.557,18.88,43.367,23.347,8.255,12.96,11.149,11.956,1.925-10.526-8.9-18.572-20.793-3.681-39.954-26.217-34.226-17.18-50.759-38.682" transform="translate(292.421 -50.328)" fill="#fff"/>
        <path id="path2847" d="M116.249,395.943-61.469,477.535s-3.4,1.407-2.458,3.671,4.333.857,4.333.857l183.345-68.006" transform="translate(79.081 -75.738)" fill="#fff"/>
        <path id="path2853" d="M54.609,412.1c-27.025-.987-41.891,15.636-66.026,13.462S-49.2,436.65-58.587,439.723s-15-3.325-16.335-.569,6.079,8.805,19.425,6.835,17.3-12.1,46.785-9.721,36.346-12.06,63.237-8.55" transform="translate(79.081 -84.966)" fill="#fff"/>
        <path id="path2975" d="M123.751,414.057l177.718-81.592s3.4-1.407,2.458-3.671-4.333-.858-4.333-.858L116.249,395.943" transform="translate(292.421 -122.591)" fill="#fff"/>
        <path id="path2981" d="M185.391,397.9c27.025.988,41.891-15.635,66.027-13.462s37.782-11.091,47.169-14.164,15,3.325,16.335.569-6.079-8.806-19.425-6.835-17.3,12.1-46.785,9.721-36.345,12.06-63.236,8.55" transform="translate(292.421 -113.363)" fill="#fff"/>
        <path id="path2910" d="M129.055,401.248,47.485,223.481s-1.406-3.4-3.67-2.459-.857,4.335-.857,4.335l67.987,183.4" transform="translate(162.332 -205.864)" fill="#fff"/>
        <path id="path2916" d="M112.9,339.591c.988-27.033-15.631-41.9-13.458-66.045s-11.088-37.793-14.161-47.182,3.325-15,.569-16.34-8.8,6.081-6.833,19.43,12.1,17.31,9.718,46.8,12.057,36.356,8.548,63.254" transform="translate(171.557 -205.864)" fill="#fff"/>
        <path id="path3011" d="M110.945,408.752l81.57,177.767s1.406,3.4,3.67,2.459.857-4.335.857-4.335l-67.987-183.4" transform="translate(209.171 7.535)" fill="#fff"/>
        <path id="path3017" d="M127.1,470.409c-.988,27.033,15.631,41.9,13.458,66.045s11.088,37.792,14.161,47.182-3.325,15-.569,16.34,8.8-6.081,6.832-19.43-12.1-17.31-9.718-46.8-12.057-36.356-8.547-63.254" transform="translate(199.946 7.535)" fill="#fff"/>
      </g>
      <g id="g4213" transform="translate(171.601 171.649)">
        <g id="g4172" transform="translate(39.292 130.721)">
          <path id="path15" d="M115.1,405,120,539.187,124.9,405" transform="translate(-25.142 -401.534)" fill="#fff"/>
          <path id="path21" d="M104.633,474.4c-8.731,24.485.466,40.738-11.256,61.488,13.024-14.858,4.438-34.113,15.814-59.31" transform="translate(-25.142 -401.534)" fill="#fff"/>
          <path id="path2869" d="M116.535,401.534l-91.393,98.35,98.323-91.418" transform="translate(-25.142 -401.534)" fill="#fff"/>
          <path id="path2816" d="M115.473,403.124,68.663,528.973l55.864-122.1" transform="translate(-25.142 -401.534)" fill="#fff"/>
          <path id="path2822" d="M79.25,463.24c-17.434,19.279-15.155,37.815-33.923,52.5C63.043,507,62.478,485.921,82.628,467" transform="translate(-25.142 -401.534)" fill="#fff"/>
        </g>
        <g id="g4079" transform="translate(0)">
          <path id="path3049" d="M124.9,405,120,270.813,115.1,405" transform="translate(14.15 -270.813)" fill="#fff"/>
          <path id="path3055" d="M135.367,335.6c8.731-24.485-.466-40.738,11.256-61.488-13.024,14.858-4.438,34.113-15.814,59.31" transform="translate(14.15 -270.813)" fill="#fff"/>
          <path id="path2944" d="M120,400.1-14.15,405,120,409.9" transform="translate(14.15 -270.813)" fill="#fff"/>
          <path id="path2950" d="M50.614,389.629c-24.478-8.733-40.727.465-61.471-11.26C4,391.4,23.247,382.809,48.437,394.188" transform="translate(14.15 -270.813)" fill="#fff"/>
          <path id="path2875" d="M60.071,443.208C36.589,454.346,31.6,472.343,8.645,478.725c19.712-1.3,27.253-20.983,53.109-30.753" transform="translate(14.15 -270.813)" fill="#fff"/>
          <path id="path2928" d="M123.465,401.534,25.142,310.115l91.393,98.351" transform="translate(14.15 -270.813)" fill="#fff"/>
          <path id="path2934" d="M81.8,345.054c-11.135-23.489-29.127-28.477-35.507-51.44,1.294,19.718,20.976,27.26,30.744,53.124" transform="translate(14.15 -270.813)" fill="#fff"/>
          <path id="path2965" d="M124.527,406.876l46.81-125.849-55.864,122.1" transform="translate(14.15 -270.813)" fill="#fff"/>
          <path id="path2896" d="M121.875,400.471-3.938,353.649l122.063,55.88" transform="translate(14.15 -270.813)" fill="#fff"/>
          <path id="path2902" d="M61.777,364.239C42.5,346.8,23.972,349.079,9.292,330.306c8.739,17.721,29.809,17.156,48.728,37.311" transform="translate(14.15 -270.813)" fill="#fff"/>
          <path id="path2849" d="M118.125,400.471-3.938,456.351l125.813-46.822" transform="translate(14.15 -270.813)" fill="#fff"/>
          <path id="path2855" d="M50.015,417.359c-25.956,1.3-37.448,16.02-61.1,13.128,18.707,6.35,33.205-8.953,60.832-8.082" transform="translate(14.15 -270.813)" fill="#fff"/>
          <path id="path2912" d="M124.527,403.124l-55.864-122.1,46.81,125.849" transform="translate(14.15 -270.813)" fill="#fff"/>
          <path id="path2918" d="M107.644,335c-1.3-25.963-16.015-37.459-13.124-61.116-6.348,18.711,8.95,33.214,8.08,60.848" transform="translate(14.15 -270.813)" fill="#fff"/>
        </g>
        <g id="g4157" transform="translate(129.623 23.449)">
          <path id="path3037" d="M120,409.9,254.15,405,120,400.1" transform="translate(-115.473 -294.262)" fill="#fff"/>
          <path id="path3043" d="M189.386,420.371c24.478,8.733,40.726-.466,61.471,11.259-14.854-13.027-34.1-4.439-59.294-15.818" transform="translate(-115.473 -294.262)" fill="#fff"/>
          <path id="path2989" d="M123.465,408.466l91.393-98.351-98.323,91.419" transform="translate(-115.473 -294.262)" fill="#fff"/>
          <path id="path2995" d="M179.929,366.792c23.483-11.138,28.469-29.135,51.426-35.517-19.712,1.294-27.253,20.982-53.109,30.753" transform="translate(-115.473 -294.262)" fill="#fff"/>
          <path id="path3025" d="M116.535,408.466l98.323,91.418-91.393-98.35" transform="translate(-115.473 -294.262)" fill="#fff"/>
          <path id="path3031" d="M158.2,464.946c11.135,23.489,29.127,28.476,35.507,51.44-1.294-19.718-20.976-27.26-30.744-53.124" transform="translate(-115.473 -294.262)" fill="#fff"/>
          <path id="path2971" d="M160.75,346.76c17.434-19.279,15.155-37.815,33.923-52.5C176.957,303,177.522,324.079,157.372,343" transform="translate(-115.473 -294.262)" fill="#fff"/>
          <path id="path3001" d="M118.125,409.529l125.813,46.822-122.063-55.88" transform="translate(-115.473 -294.262)" fill="#fff"/>
          <path id="path3007" d="M178.223,445.761c19.274,17.439,37.8,15.16,52.485,33.933-8.739-17.722-29.809-17.156-48.729-37.311" transform="translate(-115.473 -294.262)" fill="#fff"/>
          <path id="path2977" d="M121.875,409.529l122.063-55.88L118.125,400.471" transform="translate(-115.473 -294.262)" fill="#fff"/>
          <path id="path2983" d="M189.985,392.641c25.956-1.3,37.448-16.02,61.1-13.128-18.707-6.35-33.206,8.953-60.832,8.082" transform="translate(-115.473 -294.262)" fill="#fff"/>
          <path id="path3013" d="M115.473,406.876l55.864,122.1-46.81-125.849" transform="translate(-115.473 -294.262)" fill="#fff"/>
          <path id="path3019" d="M132.356,475c1.3,25.963,16.015,37.459,13.124,61.116,6.348-18.712-8.95-33.215-8.08-60.848" transform="translate(-115.473 -294.262)" fill="#fff"/>
        </g>
      </g>
      <ellipse id="circle31" cx="79.632" cy="79.654" rx="79.632" ry="79.654" transform="translate(226.119 226.181)" fill="#fff"/>
    </g>
  </g>
</svg>
