<svg xmlns="http://www.w3.org/2000/svg" width="408.347" height="519.467" viewBox="0 0 408.347 519.467">
  <g id="Group_1" data-name="Group 1" transform="translate(-781.293 -5758.975)">
    <path id="Path_24" data-name="Path 24" d="M783,5828.155l4.949-8.1v-7.622L807,5777.658s13.339-17.15,26.678-16.674,29.536,8.1,29.536,8.1,13.339,10.957,15.721,13.339,22.867,13.339,22.867,13.339l4.287,5.24,27.631,8.1h40.97l23.82,10.957,43.352,23.82,26.2,32.871,44.3,66.695,21.914,40.017v46.687l-7.146,27.154,24.772,6.193,10.957,14.292V6160.2s11.433,27.631,11.433,29.06,2.382,15.244,2.382,15.244v36.206c0,1.905,10.957,18.579,10.957,18.579v17.15l-281.547-.477s8.1-11.91,8.575-13.339,0-12.386,0-12.386l-3.335-3.812v-9.051l14.768-9.528,13.815-3.811,11.433-42.875-4.288-9.052-9.528-17.626-16.674-16.2-14.768-11.434-31.918-24.772-22.341-13.808H823.812s-11.509,1.5-13.677,0-6.839-12.01-6.839-12.01l-6.172-11.342-1-9.507,19.515-43.2,14.011-9.007,3.336-1.167,11.175-7.339,8.507-10.341-16.68-18.515-24.519-23.185s-3.67-4.5-4.67-7.839,1.668-24.52,1.668-24.52,9.674-26.354,13.177-29.022,35.027,2.668,35.027,2.668l11.342,7.172,4.67.834,11.175,9.174v3.836s0,1-1.835.834-13.01-4.67-13.01-4.67,4.17,14.512,4.5,15.179-2.335,5-2.335,5-3.669-.333-4.17,0-2.335-.5-3-1.5-2.669-8.34-2.669-8.34V5910.3l2.669-2.335,2-.667,1-3.169v-3s-2.335-2.5-3.836-2.5-3.169-.333-4.17,0-5,2.5-5,2.5-8.006.167-8.673.667-4,1.5-4.337,2.335-10.508-7.005-10.508-7.005l-.834-3.836,8.173,1.5,32.359,6.338" fill="none" stroke="#fff" stroke-width="4"/>
    <path id="Path_25" data-name="Path 25" d="M861.129,5910.651l-10.561,3.652s-7.9,6.316-8.291,7.4-1.974,5.132-2.665,5.922-2.862,2.862-2.862,2.862l5.527,5.231,24.674,14.706,13.324,4.541s.1-3.751,0-4.541.493-11.251.493-11.547,6.711-24.575,6.711-24.575V5899.7l-1.283-10.561-2.467-13.028v-8.17h-9.545l-14.511,16.179" fill="none" stroke="#fff" stroke-width="4"/>
    <path id="Path_26" data-name="Path 26" d="M829.744,5879.171v-1.678l-5.231-.494-1.382-2.961-4.244.494s-1.875-.691-2.171-1.185-3.06-3.355-3.257-3.849-2.27-7.8-2.665-8.192-.987-10.659-.987-10.659l-6.119-.79s-4.244-9.081-4.244-9.475a6.853,6.853,0,0,0,0-2.467,6.544,6.544,0,0,1-.395-1.579s-9.277-2.171-9.574-2.171a43.6,43.6,0,0,1-3.948-2.862,27.66,27.66,0,0,1-1.974-3.651" fill="none" stroke="#fff" stroke-width="4"/>
    <path id="Path_27" data-name="Path 27" d="M906.333,5802.385c-.395,1.776-5.527,9.87-5.527,9.87s-3.849,7.3-5.527,8.883-9.376,3.454-10.659,3.454a25.139,25.139,0,0,1-6.613-1.974c-1.382-.691-6.613-.987-7.3-.888s-1.48.3-1.776,0-3.849-4.145-4.047-4.441a21.237,21.237,0,0,0-3.06-1.48s-4.54-1.678-6.415-1.086-5.231,6.021-5.231,6.021a10.165,10.165,0,0,0-.691,2.665,47.447,47.447,0,0,0,.691,4.836,28.255,28.255,0,0,0,1.579,3.06c.2.3,2.467,3.553,2.763,4.146a11.172,11.172,0,0,0,2.27,3.652c1.184.987,4.145,2.27,4.441,2.763s1.875.889,3.652.4,2.171-.494,2.467-1.086.493-1.283.888-2.072.691-16.482.691-16.482" fill="none" stroke="#fff" stroke-width="4"/>
    <path id="Path_28" data-name="Path 28" d="M855.6,5825.579c6.021-4.738,8.093,0,8.093,0l-1.184,10.462s-.888,2.763-2.665.987" fill="none" stroke="#fff" stroke-width="4"/>
    <path id="Path_29" data-name="Path 29" d="M851.063,5830.614l-9.179,3.06s-4.244-1.086-5.034-1.382-3.652-1.678-3.652-1.678l-3.257.691-4.047,4.639s-8.685-6.711-9.179-6.711a21.36,21.36,0,0,0-3.553,0c-.592.2-3.652,4.441-3.652,4.441l-3.652-1.382-6.711,4.146" fill="none" stroke="#fff" stroke-width="4"/>
    <path id="Path_30" data-name="Path 30" d="M878.382,5954.416l15.653,4.362,7.442,1.283s2.31-22.71,2.694-25.918,4.747-13.087,4.747-13.087l6.8-9.6s.257-22.343,0-22.984,4.619-15.269,4.619-15.269l16.936-18.989" fill="none" stroke="#fff" stroke-width="4"/>
    <path id="Path_31" data-name="Path 31" d="M884.027,5867.937l15.012,2.054,3.336,2.566v15.91c0,.513,9.88,27.457,9.88,27.457" fill="none" stroke="#fff" stroke-width="4"/>
    <path id="Path_32" data-name="Path 32" d="M941.739,5993.368s49.038-5,51.54-6.672,1.668-5.838,1.668-5.838-13.511-15.179-14.011-15.512-17.013-8.673-17.013-8.673Z" fill="none" stroke="#fff" stroke-width="4"/>
    <path id="Path_33" data-name="Path 33" d="M1127.118,6058.2c-17.564,9.757-67.653,13.661-67.653,13.661s-62.449-3.252-64.184-3.252-14.094-2.168-13.444-1.3S1002,6087.043,1002,6087.043l5.2,13.444s-.651,21.467,0,22.117,24.5,57.461,24.936,58.979,16.046,20.166,16.263,21.033-.217,15.178,0,16.263-8.457,10.191-14.962,12.36-26.237,13.01-26.237,13.01l-19.3,19.732-15.179,1.084" fill="none" stroke="#fff" stroke-width="4"/>
    <path id="Path_34" data-name="Path 34" d="M819.874,5872.43s2.823-4.619,3.208-4.619" fill="none" stroke="#fff" stroke-width="4"/>
    <path id="Path_35" data-name="Path 35" d="M818.463,5866.784c1.54-6.03,7.185-3.721,7.185-3.721" fill="none" stroke="#fff" stroke-width="4"/>
    <path id="Path_36" data-name="Path 36" d="M820.247,5851.661a61.779,61.779,0,0,0,5.618-3.188" fill="none" stroke="#fff" stroke-width="4"/>
    <path id="Path_37" data-name="Path 37" d="M1013.952,5891.931a221.565,221.565,0,0,0-32.417,35.05l-19.168,29.88" fill="none" stroke="#fff" stroke-width="4"/>
    <path id="Path_38" data-name="Path 38" d="M992.81,5914.013c1.128,0,26.5,1.128,27.343,1.41s18.041,6.2,18.041,6.2l14.376-13.812s3.383-16.914,3.383-18.6-1.409-14.376-1.409-14.376" fill="none" stroke="#fff" stroke-width="4"/>
    <path id="Path_39" data-name="Path 39" d="M1039.322,5921.625h40.31" fill="none" stroke="#fff" stroke-width="4"/>
    <path id="Path_40" data-name="Path 40" d="M976.461,6073.562s11.557,18.6,13.813,20.578,8.175,14.376,8.457,16.067,5.92,26.5,5.92,26.5" fill="none" stroke="#fff" stroke-width="4"/>
    <path id="Path_41" data-name="Path 41" d="M850.836,6077.778s-3.5-4.5-4-4.67-10.008-2.335-10.008-2.335-8.34-5.5-8.673-6.338-3.67-11.509-3.67-11.509l3.67-4.17,10.008-1.168s3.669,4.67,4,6.505,0,5.838,2.168,8.006,6.672,3.335,8.507,2.335a8.253,8.253,0,0,0,3-2.335c.5-.667,1.168-5.171,1.168-5.171l-10.175-35.361-6.338-4.17,29.857-15.679" fill="none" stroke="#fff" stroke-width="4"/>
    <path id="Path_42" data-name="Path 42" d="M811.782,6057.13l7.008,12.436s13.62,9.771,14.311,10.758,15.1,1.381,15.1,1.381" fill="none" stroke="#fff" stroke-width="4"/>
    <path id="Path_43" data-name="Path 43" d="M830.436,6087.134c-.592-.1-12.238-5.626-12.535-5.626s-9.968-16.087-9.968-16.087" fill="none" stroke="#fff" stroke-width="4"/>
    <path id="Path_44" data-name="Path 44" d="M816.322,6085.949c-.3-.3-11.35-14.41-11.35-14.41" fill="none" stroke="#fff" stroke-width="4"/>
    <path id="Path_45" data-name="Path 45" d="M956.252,6231.9c-.167.5,18.348-31.525,18.348-32.526s1.835-8.173,1.5-16.013-12.677-31.024-12.677-31.024-34.527-43.034-34.861-44.368-21.851-33.693-21.851-33.693-18.681-18.182-13.01-34.194,15.679-21.684,15.679-21.684L979.1,5998.05l38.03-1.835,33.193-1.5" fill="none" stroke="#fff" stroke-width="4"/>
    <path id="Path_46" data-name="Path 46" d="M836.751,5867.811c.693-.078,10.957-3.236,10.957-3.236s5.33,1.085,6.317,1.085" fill="none" stroke="#fff" stroke-width="4"/>
    <path id="Path_47" data-name="Path 47" d="M832.114,5859.245c.395-.79,8.784-8.686,8.784-8.686l15.4,3.849" fill="none" stroke="#fff" stroke-width="4"/>
    <path id="Path_48" data-name="Path 48" d="M975.382,6095.433s6.415,22.325,7.7,22.838,12.831,12.189,13.6,13.344,4.491,13.473,4.876,14.242,4.619,7.185,6.159,7.441" fill="none" stroke="#fff" stroke-width="4"/>
    <path id="Path_49" data-name="Path 49" d="M961.782,6067.334c.385.77,17.45,23.479,17.321,23.865" fill="none" stroke="#fff" stroke-width="4"/>
    <path id="Path_50" data-name="Path 50" d="M916.234,5914.527s2.053,13.985,2.31,14.37,11.034,6.159,11.034,6.159" fill="none" stroke="#fff" stroke-width="4"/>
    <path id="Path_51" data-name="Path 51" d="M988.159,5855.506" fill="none" stroke="#fff" stroke-width="4"/>
    <path id="Path_52" data-name="Path 52" d="M971.478,5875.624l16.466,12.843s2.669,1.334,7.84,0,8.84-9.341,8.507-10.175-13.511-22.851-13.511-22.851" fill="none" stroke="#fff" stroke-width="4"/>
    <path id="Path_53" data-name="Path 53" d="M1000.787,5837.593c.834,1.334,12.843,14.678,12.843,15.846a119.99,119.99,0,0,1-1.835,13.344" fill="none" stroke="#fff" stroke-width="4"/>
    <path id="Path_54" data-name="Path 54" d="M1019.636,5837.593c5.671,4.337,17.514,21.851,17.514,21.851" fill="none" stroke="#fff" stroke-width="4"/>
    <path id="Path_55" data-name="Path 55" d="M928.038,5844.6c.9,1.155,8.981,9.495,8.981,9.495" fill="none" stroke="#fff" stroke-width="4"/>
    <path id="Path_56" data-name="Path 56" d="M949.979,5844.6c-.385-.513-23.223-13.215-23.608-13.344" fill="none" stroke="#fff" stroke-width="4"/>
    <path id="Path_57" data-name="Path 57" d="M901.711,6070.286c-.5.333-8.507,7.005-8.507,7.005" fill="none" stroke="#fff" stroke-width="4"/>
    <path id="Path_58" data-name="Path 58" d="M866.183,6075.29l19.349-9.007,1.668,6.672-2.669,10.675-6,4.17" fill="none" stroke="#fff" stroke-width="4"/>
    <path id="Path_59" data-name="Path 59" d="M981.107,6061.779c-2-2.5-10.675-7.506-10.675-7.506" fill="none" stroke="#fff" stroke-width="4"/>
    <path id="Path_60" data-name="Path 60" d="M1022.806,6019.913c4,3.336,30.691,17.514,30.691,17.514" fill="none" stroke="#fff" stroke-width="4"/>
    <path id="Path_61" data-name="Path 61" d="M1055.953,6004.734c2.548,1.668,25.566,19.349,25.566,19.349" fill="none" stroke="#fff" stroke-width="4"/>
    <path id="Path_62" data-name="Path 62" d="M1079.632,6001.565c2.388,2.5,25.907,22.851,26.574,23.352s5.171-1.168,5.5-1.835-1.668-9.007-1.668-9.007l-20.516-15.179" fill="none" stroke="#fff" stroke-width="4"/>
  </g>
</svg>
